{"title":"Australian Survivor - S03E19","uid":15961379,"size":1500128559,"categoryP":"video","categoryS":"tv_shows","magnet":"?xt=urn:btih:cdd631c8047505e28c2ba5a7c6cc56c7952a41a5&amp;dn=Australian+Survivor+-+S03E19&amp;tr=udp%3A%2F%2Ftracker.leechers-paradise.org%3A6969&amp;tr=udp%3A%2F%2Fzer0day.ch%3A1337&amp;tr=udp%3A%2F%2Fopen.demonii.com%3A1337&amp;tr=udp%3A%2F%2Ftracker.coppersurfer.tk%3A6969&amp;tr=udp%3A%2F%2Fexodus.desync.com%3A6969","seeders":14,"leechers":11,"uploader":"Bullrout","files":1,"time":1475665823,"description":"Australian Survivor - S03E19\r\n\r\nToday's reward challenge is for a delicious Sunday Roast which will be perfect fuel for the immunity challenge. Who will be safe from tonight's tribal council vote?\r\n\r\nComplete name : Australian Survivor - S03E19.mkv\r\nFormat : Matroska\r\nFormat version : Version 4 / Version 2\r\nFile size : 1.40 GiB\r\nDuration : 1 h 1 min\r\nOverall bit rate mode : Variable\r\nOverall bit rate : 3 278 kb/s\r\nEncoded date : UTC 2016-10-04 21:16:20\r\nWriting application : mkvmerge v9.4.2 ('So High') 64bit\r\nWriting library : libebml v1.3.4 + libmatroska v1.4.5\r\n\r\nVideo\r\nID : 2\r\nFormat : AVC\r\nFormat/Info : Advanced Video Codec\r\nFormat profile :   \r\nFormat settings, CABAC : Yes\r\nFormat settings, ReFrames : 3 frames\r\nCodec ID : V_MPEG4/ISO/AVC\r\nDuration : 1 h 1 min\r\nBit rate mode : Variable\r\nBit rate : 2 892 kb/s\r\nMaximum bit rate : 3 000 kb/s\r\nWidth : 1 280 pixels\r\nHeight : 720 pixels\r\nDisplay aspect ratio : 16:9\r\nFrame rate mode : Constant\r\nFrame rate : 25.000 FPS\r\nStandard : PAL\r\nColor space : YUV\r\nChroma subsampling : 4:2:0\r\nBit depth : 8 bits\r\nScan type : Progressive\r\nBits/(Pixel*Frame) : 0.126\r\nStream size : 1.23 GiB (88%)\r\nWriting library : x264 core 112\r\nDefault : Yes\r\nForced : No\r\nColor range : Limited\r\nColor primaries : BT.709\r\nTransfer characteristics : BT.709\r\nMatrix coefficients : BT.709\r\n\r\nAudio\r\nID : 1\r\nFormat : AC-3\r\nFormat/Info : Audio Coding 3\r\nMode extension : CM (complete main)\r\nFormat settings, Endianness : Big\r\nCodec ID : A_AC3\r\nDuration : 1 h 1 min\r\nBit rate mode : Constant\r\nBit rate : 384 kb/s\r\nChannel(s) : 6 channels\r\nChannel positions : Front: L C R, Side: L R, LFE\r\nSampling rate : 48.0 kHz\r\nFrame rate : 31.250 FPS (1536 spf)\r\nCompression mode : Lossy\r\nStream size : 168 MiB (12%)\r\nDefault : Yes\r\nForced : No","torrent":{"xt":"urn:btih:cdd631c8047505e28c2ba5a7c6cc56c7952a41a5","amp;dn":"Australian+Survivor+-+S03E19","amp;tr":["udp%3A%2F%2Ftracker.leechers-paradise.org%3A6969","udp%3A%2F%2Fzer0day.ch%3A1337","udp%3A%2F%2Fopen.demonii.com%3A1337","udp%3A%2F%2Ftracker.coppersurfer.tk%3A6969","udp%3A%2F%2Fexodus.desync.com%3A6969"],"infoHash":"cdd631c8047505e28c2ba5a7c6cc56c7952a41a5","infoHashBuffer":{"type":"Buffer","data":[205,214,49,200,4,117,5,226,140,43,165,167,198,204,86,199,149,42,65,165]},"announce":[],"urlList":[]}}